<?xml version="1.0" encoding="UTF-8"?>
<!DOCTYPE svg PUBLIC "-//W3C//DTD SVG 1.1//EN" "http://www.w3.org/Graphics/SVG/1.1/DTD/svg11.dtd">
<svg xmlns="http://www.w3.org/2000/svg" version="1.1" width="2500px" height="2500px" style="shape-rendering:geometricPrecision; text-rendering:geometricPrecision; image-rendering:optimizeQuality; fill-rule:evenodd; clip-rule:evenodd" xmlns:xlink="http://www.w3.org/1999/xlink">
<g><path style="opacity:1" fill="#438a26" d="M -0.5,-0.5 C 20.5,-0.5 41.5,-0.5 62.5,-0.5C 227.167,164.5 391.833,329.5 556.5,494.5C 534.989,505.418 513.989,517.085 493.5,529.5C 329.167,364.5 164.5,199.833 -0.5,35.5C -0.5,23.5 -0.5,11.5 -0.5,-0.5 Z"/></g>
<g><path style="opacity:1" fill="#478d28" d="M 62.5,-0.5 C 170.167,-0.5 277.833,-0.5 385.5,-0.5C 523.5,137.833 661.5,276.167 799.5,414.5C 715.439,431.965 634.439,458.632 556.5,494.5C 391.833,329.5 227.167,164.5 62.5,-0.5 Z"/></g>
<g><path style="opacity:1" fill="#4b902a" d="M 385.5,-0.5 C 435.833,-0.5 486.167,-0.5 536.5,-0.5C 666.465,129.965 796.632,260.299 927,390.5C 927.464,391.094 927.631,391.761 927.5,392.5C 884.535,398.243 841.869,405.576 799.5,414.5C 661.5,276.167 523.5,137.833 385.5,-0.5 Z"/></g>
<g><path style="opacity:1" fill="#4e932c" d="M 536.5,-0.5 C 626.167,-0.5 715.833,-0.5 805.5,-0.5C 930.167,124.5 1054.83,249.5 1179.5,374.5C 1095.08,375.32 1011.08,381.32 927.5,392.5C 927.631,391.761 927.464,391.094 927,390.5C 796.632,260.299 666.465,129.965 536.5,-0.5 Z"/></g>
<g><path style="opacity:1" fill="#50962e" d="M 805.5,-0.5 C 827.5,-0.5 849.5,-0.5 871.5,-0.5C 995.965,124.465 1120.63,249.299 1245.5,374C 1242.85,374.497 1240.19,374.664 1237.5,374.5C 1218.17,374.5 1198.83,374.5 1179.5,374.5C 1054.83,249.5 930.167,124.5 805.5,-0.5 Z"/></g>
<g><path style="opacity:1" fill="#549830" d="M 871.5,-0.5 C 974.167,-0.5 1076.83,-0.5 1179.5,-0.5C 1315.97,136.465 1452.63,273.299 1589.5,410C 1588.91,410.464 1588.24,410.631 1587.5,410.5C 1471.77,388.194 1355.1,376.194 1237.5,374.5C 1240.19,374.664 1242.85,374.497 1245.5,374C 1120.63,249.299 995.965,124.465 871.5,-0.5 Z"/></g>
<g><path style="opacity:1" fill="#579b32" d="M 1179.5,-0.5 C 1218.17,-0.5 1256.83,-0.5 1295.5,-0.5C 1445.97,150.465 1596.63,301.299 1747.5,452C 1746.91,452.464 1746.24,452.631 1745.5,452.5C 1693.34,436.217 1640.67,422.217 1587.5,410.5C 1588.24,410.631 1588.91,410.464 1589.5,410C 1452.63,273.299 1315.97,136.465 1179.5,-0.5 Z"/></g>
<g><path style="opacity:1" fill="#5a9e34" d="M 1295.5,-0.5 C 1403.17,-0.5 1510.83,-0.5 1618.5,-0.5C 1911.83,293.5 2205.5,587.167 2499.5,880.5C 2499.5,988.167 2499.5,1095.83 2499.5,1203.5C 2330.7,1035.2 2162.03,866.701 1993.5,698C 1992.91,697.536 1992.24,697.369 1991.5,697.5C 1994.32,680.221 1996.82,662.888 1999,645.5C 1999.76,625.793 1994.1,608.127 1982,592.5C 1966.05,571.543 1947.21,553.71 1925.5,539C 1889.25,514.202 1850.58,493.536 1809.5,477C 1788.19,468.5 1766.86,460.334 1745.5,452.5C 1746.24,452.631 1746.91,452.464 1747.5,452C 1596.63,301.299 1445.97,150.465 1295.5,-0.5 Z"/></g>
<g><path style="opacity:1" fill="#5ea136" d="M 1618.5,-0.5 C 1650.83,-0.5 1683.17,-0.5 1715.5,-0.5C 1976.5,261.167 2237.83,522.5 2499.5,783.5C 2499.5,815.833 2499.5,848.167 2499.5,880.5C 2205.5,587.167 1911.83,293.5 1618.5,-0.5 Z"/></g>
<g><path style="opacity:1" fill="#60a337" d="M 1715.5,-0.5 C 1786.83,-0.5 1858.17,-0.5 1929.5,-0.5C 2119.17,189.833 2309.17,379.833 2499.5,569.5C 2499.5,640.833 2499.5,712.167 2499.5,783.5C 2237.83,522.5 1976.5,261.167 1715.5,-0.5 Z"/></g>
<g><path style="opacity:1" fill="#62a638" d="M 1929.5,-0.5 C 1950.17,-0.5 1970.83,-0.5 1991.5,-0.5C 2160.5,169.167 2329.83,338.5 2499.5,507.5C 2499.5,528.167 2499.5,548.833 2499.5,569.5C 2309.17,379.833 2119.17,189.833 1929.5,-0.5 Z"/></g>
<g><path style="opacity:1" fill="#64a739" d="M 1991.5,-0.5 C 2039.5,-0.5 2087.5,-0.5 2135.5,-0.5C 2256.5,121.167 2377.83,242.5 2499.5,363.5C 2499.5,411.5 2499.5,459.5 2499.5,507.5C 2329.83,338.5 2160.5,169.167 1991.5,-0.5 Z"/></g>
<g><path style="opacity:1" fill="#67aa3b" d="M 2135.5,-0.5 C 2256.83,-0.5 2378.17,-0.5 2499.5,-0.5C 2499.5,120.833 2499.5,242.167 2499.5,363.5C 2377.83,242.5 2256.5,121.167 2135.5,-0.5 Z"/></g>
<g><path style="opacity:1" fill="#428826" d="M -0.5,35.5 C 164.5,199.833 329.167,364.5 493.5,529.5C 479.574,539.418 465.907,549.751 452.5,560.5C 301.833,409.167 150.833,258.167 -0.5,107.5C -0.5,83.5 -0.5,59.5 -0.5,35.5 Z"/></g>
<g><path style="opacity:1" fill="#408724" d="M -0.5,107.5 C 150.833,258.167 301.833,409.167 452.5,560.5C 433.236,576.606 418.736,596.272 409,619.5C 405.243,629.978 404.576,640.645 407,651.5C 410.591,676.505 414.091,701.505 417.5,726.5C 416.448,726.649 415.448,726.483 414.5,726C 276.299,587.632 137.965,449.465 -0.5,311.5C -0.5,243.5 -0.5,175.5 -0.5,107.5 Z"/></g>
<g><path style="opacity:1" fill="#3d8423" d="M -0.5,311.5 C 137.965,449.465 276.299,587.632 414.5,726C 415.448,726.483 416.448,726.649 417.5,726.5C 425.165,783.151 432.832,839.818 440.5,896.5C 293.86,749.194 146.86,602.194 -0.5,455.5C -0.5,407.5 -0.5,359.5 -0.5,311.5 Z"/></g>
<g><path style="opacity:1" fill="#fefefe" d="M 1179.5,374.5 C 1198.83,374.5 1218.17,374.5 1237.5,374.5C 1355.1,376.194 1471.77,388.194 1587.5,410.5C 1640.67,422.217 1693.34,436.217 1745.5,452.5C 1766.86,460.334 1788.19,468.5 1809.5,477C 1850.58,493.536 1889.25,514.202 1925.5,539C 1947.21,553.71 1966.05,571.543 1982,592.5C 1994.1,608.127 1999.76,625.793 1999,645.5C 1996.82,662.888 1994.32,680.221 1991.5,697.5C 1987.02,731.198 1982.35,764.865 1977.5,798.5C 1964.74,888.488 1952.07,978.488 1939.5,1068.5C 1936.18,1088.1 1933.18,1107.77 1930.5,1127.5C 1928.05,1146.85 1925.39,1166.18 1922.5,1185.5C 1922.83,1186.83 1923.17,1188.17 1923.5,1189.5C 1968.01,1213.85 2009.34,1242.69 2047.5,1276C 2060.99,1289.48 2072.15,1304.64 2081,1321.5C 2094.24,1356.45 2085.4,1384.29 2054.5,1405C 2030.59,1415.6 2005.59,1419.6 1979.5,1417C 1970.82,1416.23 1962.15,1415.4 1953.5,1414.5C 1932.75,1410.93 1912.08,1406.93 1891.5,1402.5C 1887.35,1433.2 1883.02,1463.87 1878.5,1494.5C 1864.89,1589.13 1851.55,1683.79 1838.5,1778.5C 1834.69,1806.82 1830.69,1835.16 1826.5,1863.5C 1823.04,1884.42 1820.04,1905.42 1817.5,1926.5C 1815.49,1953.69 1804.49,1976.52 1784.5,1995C 1765.66,2011.58 1745,2025.42 1722.5,2036.5C 1688.4,2052.09 1653.4,2065.09 1617.5,2075.5C 1555.16,2091.59 1492.16,2103.59 1428.5,2111.5C 1405.68,2113.69 1383.01,2116.02 1360.5,2118.5C 1300.25,2122.66 1239.92,2124.66 1179.5,2124.5C 1119.64,2123.78 1059.97,2120.11 1000.5,2113.5C 921.965,2105.69 844.631,2091.52 768.5,2071C 733.934,2061.2 700.601,2048.37 668.5,2032.5C 644.78,2020.38 623.614,2004.71 605,1985.5C 595.545,1974.59 588.711,1962.25 584.5,1948.5C 571.927,1853.74 558.927,1759.07 545.5,1664.5C 536.826,1598.12 527.826,1531.79 518.5,1465.5C 508.166,1389.5 497.833,1313.5 487.5,1237.5C 483.634,1211.82 479.967,1186.16 476.5,1160.5C 464.677,1072.43 452.677,984.426 440.5,896.5C 432.832,839.818 425.165,783.151 417.5,726.5C 414.091,701.505 410.591,676.505 407,651.5C 404.576,640.645 405.243,629.978 409,619.5C 418.736,596.272 433.236,576.606 452.5,560.5C 465.907,549.751 479.574,539.418 493.5,529.5C 513.989,517.085 534.989,505.418 556.5,494.5C 634.439,458.632 715.439,431.965 799.5,414.5C 841.869,405.576 884.535,398.243 927.5,392.5C 1011.08,381.32 1095.08,375.32 1179.5,374.5 Z"/></g>
<g><path style="opacity:1" fill="#4e932c" d="M 1243.5,437.5 C 1365.83,560.167 1488.17,682.833 1610.5,805.5C 1532,821.276 1452.67,831.609 1372.5,836.5C 1243.5,707.167 1114.5,577.833 985.5,448.5C 1032.87,442.971 1080.53,439.471 1128.5,438C 1166.83,437.5 1205.17,437.333 1243.5,437.5 Z"/></g>
<g><path style="opacity:1" fill="#50962e" d="M 1243.5,437.5 C 1266.58,437.987 1289.58,438.987 1312.5,440.5C 1429.47,557.965 1546.63,675.299 1664,792.5C 1664.46,793.094 1664.63,793.761 1664.5,794.5C 1646.6,798.679 1628.6,802.346 1610.5,805.5C 1488.17,682.833 1365.83,560.167 1243.5,437.5 Z"/></g>
<g><path style="opacity:1" fill="#539830" d="M 1312.5,440.5 C 1435.72,445.213 1556.72,463.879 1675.5,496.5C 1746.81,566.807 1817.47,637.807 1887.5,709.5C 1859.53,727.483 1829.87,742.317 1798.5,754C 1754.63,770.298 1709.97,783.798 1664.5,794.5C 1664.63,793.761 1664.46,793.094 1664,792.5C 1546.63,675.299 1429.47,557.965 1312.5,440.5 Z"/></g>
<g><path style="opacity:1" fill="#4b902b" d="M 985.5,448.5 C 1114.5,577.833 1243.5,707.167 1372.5,836.5C 1329.99,840.445 1287.32,842.611 1244.5,843C 1212.66,843.831 1181,843.664 1149.5,842.5C 1175.5,842.667 1201.5,842.5 1227.5,842C 1103.17,717.667 978.833,593.333 854.5,469C 852.866,468.506 851.199,468.34 849.5,468.5C 894.282,459.15 939.615,452.483 985.5,448.5 Z"/></g>
<g><path style="opacity:1" fill="#3a8121" d="M -0.5,455.5 C 146.86,602.194 293.86,749.194 440.5,896.5C 452.677,984.426 464.677,1072.43 476.5,1160.5C 317.5,1001.83 158.5,843.167 -0.5,684.5C -0.5,608.167 -0.5,531.833 -0.5,455.5 Z"/></g>
<g><path style="opacity:1" fill="#478d28" d="M 849.5,468.5 C 851.199,468.34 852.866,468.506 854.5,469C 978.833,593.333 1103.17,717.667 1227.5,842C 1201.5,842.5 1175.5,842.667 1149.5,842.5C 1058.86,841.028 968.864,833.694 879.5,820.5C 880.552,820.649 881.552,820.483 882.5,820C 789.917,726.917 696.917,634.417 603.5,542.5C 661.8,516.678 722.133,496.511 784.5,482C 806.101,477.067 827.768,472.567 849.5,468.5 Z"/></g>
<g><path style="opacity:1" fill="#579b32" d="M 1675.5,496.5 C 1745.77,515.863 1812.44,543.696 1875.5,580C 1893.77,591.258 1910.6,604.425 1926,619.5C 1936.99,631.719 1939.65,645.719 1934,661.5C 1926.37,675.134 1916.54,686.967 1904.5,697C 1898.96,701.384 1893.29,705.551 1887.5,709.5C 1817.47,637.807 1746.81,566.807 1675.5,496.5 Z"/></g>
<g><path style="opacity:1" fill="#438a26" d="M 603.5,542.5 C 696.917,634.417 789.917,726.917 882.5,820C 881.552,820.483 880.552,820.649 879.5,820.5C 839.628,815.523 800.295,808.19 761.5,798.5C 688.703,724.201 615.037,650.034 540.5,576C 539.906,575.536 539.239,575.369 538.5,575.5C 559.13,562.684 580.797,551.684 603.5,542.5 Z"/></g>
<g><path style="opacity:1" fill="#428826" d="M 538.5,575.5 C 539.239,575.369 539.906,575.536 540.5,576C 615.037,650.034 688.703,724.201 761.5,798.5C 698.148,786.216 636.814,767.382 577.5,742C 549.051,729.62 522.717,713.953 498.5,695C 486.464,684.735 476.964,672.569 470,658.5C 468.034,649.82 468.034,641.153 470,632.5C 476.426,621.84 484.592,612.674 494.5,605C 508.362,593.907 523.029,584.074 538.5,575.5 Z"/></g>
<g><path style="opacity:1" fill="#387f20" d="M -0.5,684.5 C 158.5,843.167 317.5,1001.83 476.5,1160.5C 479.967,1186.16 483.634,1211.82 487.5,1237.5C 324.881,1075.21 162.215,912.881 -0.5,750.5C -0.5,728.5 -0.5,706.5 -0.5,684.5 Z"/></g>
<g><path style="opacity:1" fill="#579b32" d="M 1991.5,697.5 C 1992.24,697.369 1992.91,697.536 1993.5,698C 2162.03,866.701 2330.7,1035.2 2499.5,1203.5C 2499.5,1242.17 2499.5,1280.83 2499.5,1319.5C 2325.5,1145.83 2151.5,972.167 1977.5,798.5C 1982.35,764.865 1987.02,731.198 1991.5,697.5 Z"/></g>
<g><path style="opacity:1" fill="#357d1e" d="M -0.5,750.5 C 162.215,912.881 324.881,1075.21 487.5,1237.5C 497.833,1313.5 508.166,1389.5 518.5,1465.5C 346.246,1291.58 173.246,1118.25 -0.5,945.5C -0.5,880.5 -0.5,815.5 -0.5,750.5 Z"/></g>
<g><path style="opacity:1" fill="#408624" d="M 756.5,862.5 C 756.369,863.239 756.536,863.906 757,864.5C 1091.67,1199.17 1426.33,1533.83 1761,1868.5C 1761.48,1869.45 1761.65,1870.45 1761.5,1871.5C 1758.78,1891.8 1756.28,1912.13 1754,1932.5C 1750.08,1941.43 1744.24,1948.93 1736.5,1955C 1717.69,1968.74 1697.35,1979.91 1675.5,1988.5C 1675.63,1987.76 1675.46,1987.09 1675,1986.5C 1280.67,1592.17 886.333,1197.83 492,803.5C 491.536,804.094 491.369,804.761 491.5,805.5C 489.211,791.85 487.211,778.017 485.5,764C 485.833,763.167 486.167,762.333 486.5,761.5C 520.385,783.61 556.385,801.776 594.5,816C 647.444,835.26 701.444,850.76 756.5,862.5 Z"/></g>
<g><path style="opacity:1" fill="#52972f" d="M 1875.5,1069.5 C 1805.37,999.868 1735.37,930.035 1665.5,860C 1664.21,859.51 1662.87,859.343 1661.5,859.5C 1727.34,845.197 1791.34,824.697 1853.5,798C 1876.54,787.735 1898.38,775.568 1919,761.5C 1904.56,864.104 1890.06,966.77 1875.5,1069.5 Z"/></g>
<g><path style="opacity:1" fill="#539830" d="M 1977.5,798.5 C 2151.5,972.167 2325.5,1145.83 2499.5,1319.5C 2499.5,1422.17 2499.5,1524.83 2499.5,1627.5C 2312.83,1441.17 2126.17,1254.83 1939.5,1068.5C 1952.07,978.488 1964.74,888.488 1977.5,798.5 Z"/></g>
<g><path style="opacity:1" fill="#3d8422" d="M 1675.5,1988.5 C 1640.14,2003.06 1603.81,2014.4 1566.5,2022.5C 1216.2,1671.7 865.701,1321.03 515,970.5C 514.517,971.448 514.351,972.448 514.5,973.5C 506.666,917.657 498.999,861.657 491.5,805.5C 491.369,804.761 491.536,804.094 492,803.5C 886.333,1197.83 1280.67,1592.17 1675,1986.5C 1675.46,1987.09 1675.63,1987.76 1675.5,1988.5 Z"/></g>
<g><path style="opacity:1" fill="#4e932c" d="M 1661.5,859.5 C 1662.87,859.343 1664.21,859.51 1665.5,860C 1735.37,930.035 1805.37,999.868 1875.5,1069.5C 1864.52,1148.68 1853.19,1227.68 1841.5,1306.5C 1705.75,1169.25 1569.42,1032.42 1432.5,896C 1430.87,895.506 1429.2,895.34 1427.5,895.5C 1506.05,887.761 1584.05,875.761 1661.5,859.5 Z"/></g>
<g><path style="opacity:1" fill="#428826" d="M 756.5,862.5 C 785.758,868.298 815.092,873.632 844.5,878.5C 844.369,879.239 844.536,879.906 845,880.5C 1153.7,1189.03 1462.2,1497.7 1770.5,1806.5C 1768.69,1828.47 1765.69,1850.13 1761.5,1871.5C 1761.65,1870.45 1761.48,1869.45 1761,1868.5C 1426.33,1533.83 1091.67,1199.17 757,864.5C 756.536,863.906 756.369,863.239 756.5,862.5 Z"/></g>
<g><path style="opacity:1" fill="#438a26" d="M 844.5,878.5 C 882.085,884.225 919.752,889.225 957.5,893.5C 1013.78,951.451 1070.78,1008.78 1128.5,1065.5C 1118.26,1102.96 1128.93,1132.8 1160.5,1155C 1179.77,1166.03 1200.11,1168.53 1221.5,1162.5C 1222.87,1162.34 1224.21,1162.51 1225.5,1163C 1411,1348.5 1596.5,1534 1782,1719.5C 1782.5,1721.47 1782.66,1723.47 1782.5,1725.5C 1779.02,1752.7 1775.02,1779.7 1770.5,1806.5C 1462.2,1497.7 1153.7,1189.03 845,880.5C 844.536,879.906 844.369,879.239 844.5,878.5 Z"/></g>
<g><path style="opacity:1" fill="#478d29" d="M 957.5,893.5 C 1068.25,904.458 1179.25,908.125 1290.5,904.5C 1404.3,1018.8 1518.3,1132.97 1632.5,1247C 1631.91,1247.46 1631.24,1247.63 1630.5,1247.5C 1510.62,1199.53 1392.29,1147.87 1275.5,1092.5C 1273.03,1052.87 1252.7,1027.7 1214.5,1017C 1173.88,1012.14 1145.21,1028.31 1128.5,1065.5C 1070.78,1008.78 1013.78,951.451 957.5,893.5 Z"/></g>
<g><path style="opacity:1" fill="#4b902b" d="M 1427.5,895.5 C 1429.2,895.34 1430.87,895.506 1432.5,896C 1569.42,1032.42 1705.75,1169.25 1841.5,1306.5C 1841.33,1311.2 1840.83,1315.86 1840,1320.5C 1838.93,1322.28 1837.43,1322.78 1835.5,1322C 1765.97,1299.99 1697.64,1275.16 1630.5,1247.5C 1631.24,1247.63 1631.91,1247.46 1632.5,1247C 1518.3,1132.97 1404.3,1018.8 1290.5,904.5C 1336.19,902.054 1381.86,899.054 1427.5,895.5 Z"/></g>
<g><path style="opacity:1" fill="#337b1c" d="M -0.5,945.5 C 173.246,1118.25 346.246,1291.58 518.5,1465.5C 527.826,1531.79 536.826,1598.12 545.5,1664.5C 544.761,1664.63 544.094,1664.46 543.5,1664C 362.299,1482.63 180.965,1301.47 -0.5,1120.5C -0.5,1062.17 -0.5,1003.83 -0.5,945.5 Z"/></g>
<g><path style="opacity:1" fill="#3a8121" d="M 1566.5,2022.5 C 1543.27,2028.98 1519.61,2034.15 1495.5,2038C 1453.75,2045.44 1411.75,2050.94 1369.5,2054.5C 1096.87,1781.37 824.035,1508.37 551,1235.5C 550.601,1235.73 550.435,1236.06 550.5,1236.5C 538.418,1148.98 526.418,1061.32 514.5,973.5C 514.351,972.448 514.517,971.448 515,970.5C 865.701,1321.03 1216.2,1671.7 1566.5,2022.5 Z"/></g>
<g><path style="opacity:1" fill="#51962e" d="M 1939.5,1068.5 C 2126.17,1254.83 2312.83,1441.17 2499.5,1627.5C 2499.5,1649.5 2499.5,1671.5 2499.5,1693.5C 2310.2,1504.7 2121.03,1315.7 1932,1126.5C 1931.62,1127.06 1931.12,1127.39 1930.5,1127.5C 1933.18,1107.77 1936.18,1088.1 1939.5,1068.5 Z"/></g>
<g><path style="opacity:1" fill="#2f781b" d="M -0.5,1120.5 C 180.965,1301.47 362.299,1482.63 543.5,1664C 544.094,1664.46 544.761,1664.63 545.5,1664.5C 558.927,1759.07 571.927,1853.74 584.5,1948.5C 583.761,1948.63 583.094,1948.46 582.5,1948C 388.299,1753.63 193.965,1559.47 -0.5,1365.5C -0.5,1283.83 -0.5,1202.17 -0.5,1120.5 Z"/></g>
<g><path style="opacity:1" fill="#4e932c" d="M 2499.5,1693.5 C 2499.5,1783.17 2499.5,1872.83 2499.5,1962.5C 2317.03,1780.53 2134.7,1598.37 1952.5,1416C 1953.06,1415.62 1953.39,1415.12 1953.5,1414.5C 1962.15,1415.4 1970.82,1416.23 1979.5,1417C 2005.59,1419.6 2030.59,1415.6 2054.5,1405C 2085.4,1384.29 2094.24,1356.45 2081,1321.5C 2072.15,1304.64 2060.99,1289.48 2047.5,1276C 2009.34,1242.69 1968.01,1213.85 1923.5,1189.5C 1923.17,1188.17 1922.83,1186.83 1922.5,1185.5C 1925.39,1166.18 1928.05,1146.85 1930.5,1127.5C 1931.12,1127.39 1931.62,1127.06 1932,1126.5C 2121.03,1315.7 2310.2,1504.7 2499.5,1693.5 Z"/></g>
<g><path style="opacity:1" fill="#468c28" d="M 1782.5,1725.5 C 1782.66,1723.47 1782.5,1721.47 1782,1719.5C 1596.5,1534 1411,1348.5 1225.5,1163C 1224.21,1162.51 1222.87,1162.34 1221.5,1162.5C 1230.82,1159.22 1239.48,1154.55 1247.5,1148.5C 1400.93,1221.92 1557.26,1288.42 1716.5,1348C 1753.87,1361.4 1791.53,1373.9 1829.5,1385.5C 1829.83,1386.33 1830.17,1387.17 1830.5,1388C 1814.34,1500.63 1798.34,1613.13 1782.5,1725.5 Z"/></g>
<g><path style="opacity:1" fill="#377f20" d="M 1369.5,2054.5 C 1348.87,2056.4 1328.21,2057.74 1307.5,2058.5C 1059.2,1809.7 810.701,1561.03 562,1312.5C 561.601,1312.73 561.435,1313.06 561.5,1313.5C 557.18,1288.06 553.514,1262.39 550.5,1236.5C 550.435,1236.06 550.601,1235.73 551,1235.5C 824.035,1508.37 1096.87,1781.37 1369.5,2054.5 Z"/></g>
<g><path style="opacity:1" fill="#4e932d" d="M 1912.5,1255.5 C 1944.91,1274.04 1975.25,1295.54 2003.5,1320C 2012.34,1328.21 2019.34,1337.71 2024.5,1348.5C 2024.18,1349.65 2023.52,1350.48 2022.5,1351C 2018.54,1352.13 2014.54,1353.13 2010.5,1354C 1998.83,1354.67 1987.17,1354.67 1975.5,1354C 1950.28,1350.61 1925.28,1346.11 1900.5,1340.5C 1904.87,1312.22 1908.87,1283.89 1912.5,1255.5 Z"/></g>
<g><path style="opacity:1" fill="#367e1e" d="M 1307.5,2058.5 C 1293.89,2059.81 1280.23,2060.64 1266.5,2061C 1220.83,2061.67 1175.17,2061.67 1129.5,2061C 1124.08,2060.78 1118.75,2060.28 1113.5,2059.5C 940.201,1885.7 766.701,1712.03 593,1538.5C 592.506,1540.13 592.34,1541.8 592.5,1543.5C 581.251,1467.09 570.918,1390.42 561.5,1313.5C 561.435,1313.06 561.601,1312.73 562,1312.5C 810.701,1561.03 1059.2,1809.7 1307.5,2058.5 Z"/></g>
<g><path style="opacity:1" fill="#2c7519" d="M -0.5,1365.5 C 193.965,1559.47 388.299,1753.63 582.5,1948C 583.094,1948.46 583.761,1948.63 584.5,1948.5C 588.711,1962.25 595.545,1974.59 605,1985.5C 623.614,2004.71 644.78,2020.38 668.5,2032.5C 668.369,2033.24 668.536,2033.91 669,2034.5C 824.035,2189.37 978.868,2344.37 1133.5,2499.5C 1088.17,2499.5 1042.83,2499.5 997.5,2499.5C 665.167,2166.5 332.5,1833.83 -0.5,1501.5C -0.5,1456.17 -0.5,1410.83 -0.5,1365.5 Z"/></g>
<g><path style="opacity:1" fill="#4b902a" d="M 1953.5,1414.5 C 1953.39,1415.12 1953.06,1415.62 1952.5,1416C 2134.7,1598.37 2317.03,1780.53 2499.5,1962.5C 2499.5,2012.83 2499.5,2063.17 2499.5,2113.5C 2293.03,1907.53 2086.7,1701.37 1880.5,1495C 1879.91,1494.54 1879.24,1494.37 1878.5,1494.5C 1883.02,1463.87 1887.35,1433.2 1891.5,1402.5C 1912.08,1406.93 1932.75,1410.93 1953.5,1414.5 Z"/></g>
<g><path style="opacity:1" fill="#478d28" d="M 1878.5,1494.5 C 1879.24,1494.37 1879.91,1494.54 1880.5,1495C 2086.7,1701.37 2293.03,1907.53 2499.5,2113.5C 2499.5,2221.17 2499.5,2328.83 2499.5,2436.5C 2279.53,2217.03 2059.7,1997.37 1840,1777.5C 1839.62,1778.06 1839.12,1778.39 1838.5,1778.5C 1851.55,1683.79 1864.89,1589.13 1878.5,1494.5 Z"/></g>
<g><path style="opacity:1" fill="#297217" d="M -0.5,1501.5 C 332.5,1833.83 665.167,2166.5 997.5,2499.5C 902.833,2499.5 808.167,2499.5 713.5,2499.5C 475.833,2261.17 237.833,2023.17 -0.5,1785.5C -0.5,1690.83 -0.5,1596.17 -0.5,1501.5 Z"/></g>
<g><path style="opacity:1" fill="#337b1d" d="M 1113.5,2059.5 C 1047.52,2057.65 982.19,2050.98 917.5,2039.5C 819.168,1939.5 719.834,1839.83 619.5,1740.5C 610.115,1674.9 601.115,1609.24 592.5,1543.5C 592.34,1541.8 592.506,1540.13 593,1538.5C 766.701,1712.03 940.201,1885.7 1113.5,2059.5 Z"/></g>
<g><path style="opacity:1" fill="#30791c" d="M 619.5,1740.5 C 719.834,1839.83 819.168,1939.5 917.5,2039.5C 848.651,2029.79 781.984,2011.95 717.5,1986C 698.064,1977.45 679.731,1967.12 662.5,1955C 654.326,1948.84 648.493,1941 645,1931.5C 636.64,1867.82 628.14,1804.15 619.5,1740.5 Z"/></g>
<g><path style="opacity:1" fill="#438a26" d="M 2499.5,2436.5 C 2499.5,2457.5 2499.5,2478.5 2499.5,2499.5C 2487.5,2499.5 2475.5,2499.5 2463.5,2499.5C 2252.03,2287.53 2040.37,2075.7 1828.5,1864C 1827.91,1863.54 1827.24,1863.37 1826.5,1863.5C 1830.69,1835.16 1834.69,1806.82 1838.5,1778.5C 1839.12,1778.39 1839.62,1778.06 1840,1777.5C 2059.7,1997.37 2279.53,2217.03 2499.5,2436.5 Z"/></g>
<g><path style="opacity:1" fill="#266f15" d="M -0.5,1785.5 C 237.833,2023.17 475.833,2261.17 713.5,2499.5C 686.167,2499.5 658.833,2499.5 631.5,2499.5C 421.167,2288.5 210.5,2077.83 -0.5,1867.5C -0.5,1840.17 -0.5,1812.83 -0.5,1785.5 Z"/></g>
<g><path style="opacity:1" fill="#428926" d="M 1826.5,1863.5 C 1827.24,1863.37 1827.91,1863.54 1828.5,1864C 2040.37,2075.7 2252.03,2287.53 2463.5,2499.5C 2439.5,2499.5 2415.5,2499.5 2391.5,2499.5C 2200.79,2307.78 2009.45,2116.78 1817.5,1926.5C 1820.04,1905.42 1823.04,1884.42 1826.5,1863.5 Z"/></g>
<g><path style="opacity:1" fill="#236d13" d="M -0.5,1867.5 C 210.5,2077.83 421.167,2288.5 631.5,2499.5C 542.167,2499.5 452.833,2499.5 363.5,2499.5C 242.5,2377.83 121.167,2256.5 -0.5,2135.5C -0.5,2046.17 -0.5,1956.83 -0.5,1867.5 Z"/></g>
<g><path style="opacity:1" fill="#408724" d="M 1817.5,1926.5 C 2009.45,2116.78 2200.79,2307.78 2391.5,2499.5C 2323.5,2499.5 2255.5,2499.5 2187.5,2499.5C 2033.7,2345.2 1879.7,2191.03 1725.5,2037C 1724.55,2036.52 1723.55,2036.35 1722.5,2036.5C 1745,2025.42 1765.66,2011.58 1784.5,1995C 1804.49,1976.52 1815.49,1953.69 1817.5,1926.5 Z"/></g>
<g><path style="opacity:1" fill="#2f781a" d="M 668.5,2032.5 C 700.601,2048.37 733.934,2061.2 768.5,2071C 844.631,2091.52 921.965,2105.69 1000.5,2113.5C 998.958,2114.16 997.291,2114.83 995.5,2115.5C 1123.19,2243.52 1250.85,2371.52 1378.5,2499.5C 1296.83,2499.5 1215.17,2499.5 1133.5,2499.5C 978.868,2344.37 824.035,2189.37 669,2034.5C 668.536,2033.91 668.369,2033.24 668.5,2032.5 Z"/></g>
<g><path style="opacity:1" fill="#3d8422" d="M 1722.5,2036.5 C 1723.55,2036.35 1724.55,2036.52 1725.5,2037C 1879.7,2191.03 2033.7,2345.2 2187.5,2499.5C 2139.5,2499.5 2091.5,2499.5 2043.5,2499.5C 1902.7,2358.2 1761.7,2217.03 1620.5,2076C 1619.55,2075.52 1618.55,2075.35 1617.5,2075.5C 1653.4,2065.09 1688.4,2052.09 1722.5,2036.5 Z"/></g>
<g><path style="opacity:1" fill="#3a8121" d="M 1617.5,2075.5 C 1618.55,2075.35 1619.55,2075.52 1620.5,2076C 1761.7,2217.03 1902.7,2358.2 2043.5,2499.5C 1967.17,2499.5 1890.83,2499.5 1814.5,2499.5C 1686.03,2370.53 1557.37,2241.7 1428.5,2113C 1432.45,2112.19 1432.45,2111.69 1428.5,2111.5C 1492.16,2103.59 1555.16,2091.59 1617.5,2075.5 Z"/></g>
<g><path style="opacity:1" fill="#387f20" d="M 1428.5,2111.5 C 1432.45,2111.69 1432.45,2112.19 1428.5,2113C 1557.37,2241.7 1686.03,2370.53 1814.5,2499.5C 1792.5,2499.5 1770.5,2499.5 1748.5,2499.5C 1622.03,2372.53 1495.37,2245.7 1368.5,2119C 1365.85,2118.5 1363.19,2118.34 1360.5,2118.5C 1383.01,2116.02 1405.68,2113.69 1428.5,2111.5 Z"/></g>
<g><path style="opacity:1" fill="#327b1c" d="M 1000.5,2113.5 C 1059.97,2120.11 1119.64,2123.78 1179.5,2124.5C 1304.17,2249.5 1428.83,2374.5 1553.5,2499.5C 1495.17,2499.5 1436.83,2499.5 1378.5,2499.5C 1250.85,2371.52 1123.19,2243.52 995.5,2115.5C 997.291,2114.83 998.958,2114.16 1000.5,2113.5 Z"/></g>
<g><path style="opacity:1" fill="#357d1e" d="M 1360.5,2118.5 C 1363.19,2118.34 1365.85,2118.5 1368.5,2119C 1495.37,2245.7 1622.03,2372.53 1748.5,2499.5C 1683.5,2499.5 1618.5,2499.5 1553.5,2499.5C 1428.83,2374.5 1304.17,2249.5 1179.5,2124.5C 1239.92,2124.66 1300.25,2122.66 1360.5,2118.5 Z"/></g>
<g><path style="opacity:1" fill="#206b11" d="M -0.5,2135.5 C 121.167,2256.5 242.5,2377.83 363.5,2499.5C 340.167,2499.5 316.833,2499.5 293.5,2499.5C 195.833,2401.17 97.8333,2303.17 -0.5,2205.5C -0.5,2182.17 -0.5,2158.83 -0.5,2135.5 Z"/></g>
<g><path style="opacity:1" fill="#1e6911" d="M -0.5,2205.5 C 97.8333,2303.17 195.833,2401.17 293.5,2499.5C 195.5,2499.5 97.5,2499.5 -0.5,2499.5C -0.5,2401.5 -0.5,2303.5 -0.5,2205.5 Z"/></g>
</svg>
