<?xml version="1.0" encoding="UTF-8"?>
<!DOCTYPE svg PUBLIC "-//W3C//DTD SVG 1.1//EN" "http://www.w3.org/Graphics/SVG/1.1/DTD/svg11.dtd">
<svg xmlns="http://www.w3.org/2000/svg" version="1.1" width="480px" height="360px" style="shape-rendering:geometricPrecision; text-rendering:geometricPrecision; image-rendering:optimizeQuality; fill-rule:evenodd; clip-rule:evenodd" xmlns:xlink="http://www.w3.org/1999/xlink">
<g><path style="opacity:1" fill="#f4f4f4" d="M 81.5,34.5 C 98.5076,33.9264 113.008,39.5931 125,51.5C 130.259,59.0248 133.593,67.3582 135,76.5C 135.333,100.5 135.667,124.5 136,148.5C 137.209,154.921 139.542,160.921 143,166.5C 143.667,167.833 143.667,169.167 143,170.5C 140.198,173.666 137.031,176.499 133.5,179C 126.82,184.103 121.32,182.936 117,175.5C 114.833,171.833 112.667,168.167 110.5,164.5C 89.6645,185.3 65.6645,190.134 38.5,179C 21.8067,166.6 15.9734,150.1 21,129.5C 25.7158,115.783 34.8825,106.283 48.5,101C 52.1228,99.8443 55.7894,98.8443 59.5,98C 76.0308,96.673 92.3642,97.8397 108.5,101.5C 110.363,88.5054 107.863,76.5054 101,65.5C 87.7751,57.1356 73.6084,55.3023 58.5,60C 51.3634,61.9344 44.3634,64.2678 37.5,67C 35.1667,67.6667 32.8333,67.6667 30.5,67C 29.8742,66.2496 29.3742,65.4162 29,64.5C 28.3333,60.1667 28.3333,55.8333 29,51.5C 29.2735,49.6711 30.1068,48.1711 31.5,47C 47.366,39.0666 64.0326,34.8999 81.5,34.5 Z M 68.5,117.5 C 81.9555,117.051 95.2889,118.051 108.5,120.5C 109.949,147.554 97.1158,161.887 70,163.5C 51.7235,161.539 44.7235,151.539 49,133.5C 52.7152,124.731 59.2152,119.398 68.5,117.5 Z"/></g>
<g><path style="opacity:1" fill="#f4f4f4" d="M 396.5,35.5 C 411.895,34.2649 426.895,36.0982 441.5,41C 445.274,42.3019 448.441,44.4686 451,47.5C 451.807,53.4163 451.641,59.2496 450.5,65C 448.833,65.6667 447.167,65.6667 445.5,65C 431.493,58.5544 416.826,56.2211 401.5,58C 395.085,59.1237 389.585,61.957 385,66.5C 381.12,73.9623 381.954,80.7957 387.5,87C 390.833,89 394.167,91 397.5,93C 411.648,97.2714 425.648,101.938 439.5,107C 461.027,121.947 465.527,141.114 453,164.5C 443.757,176.382 431.591,183.215 416.5,185C 396.29,187.409 376.956,184.409 358.5,176C 355.732,174.238 354.232,171.738 354,168.5C 353.303,164.465 353.47,160.465 354.5,156.5C 354.952,154.688 356.118,153.688 358,153.5C 375.025,161.305 392.859,164.472 411.5,163C 420.86,162.086 427.693,157.586 432,149.5C 433.948,142.135 432.115,135.968 426.5,131C 423.661,129.08 420.661,127.413 417.5,126C 403.555,122.098 389.888,117.432 376.5,112C 360.024,101.547 353.524,86.7132 357,67.5C 363.914,49.125 377.081,38.4583 396.5,35.5 Z"/></g>
<g><path style="opacity:1" fill="#f5f5f5" d="M 204.5,148.5 C 204.281,149.675 204.614,150.675 205.5,151.5C 206.298,151.043 206.631,150.376 206.5,149.5C 214.191,114.402 222.358,79.4023 231,44.5C 231.465,43.0692 232.299,41.9025 233.5,41C 241.395,39.3989 249.395,39.0655 257.5,40C 259.667,40.8333 261.167,42.3333 262,44.5C 270.312,79.8942 278.812,115.228 287.5,150.5C 297.153,114.888 306.653,79.2213 316,43.5C 316.833,42 318,40.8333 319.5,40C 327.167,39.3333 334.833,39.3333 342.5,40C 343.617,43.0731 343.784,46.2397 343,49.5C 329.667,92.1667 316.333,134.833 303,177.5C 301.833,178.667 300.667,179.833 299.5,181C 291.5,181.667 283.5,181.667 275.5,181C 273.185,179.891 271.685,178.057 271,175.5C 262.509,141.203 254.176,106.87 246,72.5C 238,105.833 230,139.167 222,172.5C 219.543,180.952 213.876,183.952 205,181.5C 201.167,181.333 197.333,181.167 193.5,181C 190.837,179.199 189.003,176.699 188,173.5C 174.932,130.391 162.098,87.2245 149.5,44C 149.559,42.5643 149.892,41.231 150.5,40C 158.5,39.3333 166.5,39.3333 174.5,40C 176,40.8333 177.167,42 178,43.5C 187.308,78.3981 196.141,113.398 204.5,148.5 Z"/></g>
<g><path style="opacity:0.439" fill="#666666" d="M 204.5,148.5 C 205.167,148.833 205.833,149.167 206.5,149.5C 206.631,150.376 206.298,151.043 205.5,151.5C 204.614,150.675 204.281,149.675 204.5,148.5 Z"/></g>
<g><path style="opacity:1" fill="#ef8f01" d="M 479.5,223.5 C 479.5,229.5 479.5,235.5 479.5,241.5C 475.887,261.829 467.721,280.162 455,296.5C 451.622,299.677 447.955,302.344 444,304.5C 441.5,304.667 440.333,303.5 440.5,301C 446.127,286.787 450.96,272.287 455,257.5C 456.827,251.449 456.827,245.449 455,239.5C 451.664,236.831 447.831,235.331 443.5,235C 426.925,234.249 410.425,235.083 394,237.5C 388.56,235.968 388.06,233.135 392.5,229C 418.113,214.93 445.113,211.597 473.5,219C 476.146,219.804 478.146,221.304 479.5,223.5 Z"/></g>
<g><path style="opacity:1" fill="#f59301" d="M 28.5,236.5 C 28.8212,238.048 29.8212,238.715 31.5,238.5C 137.24,289.8 247.24,301.466 361.5,273.5C 364.152,273.59 366.485,272.924 368.5,271.5C 371.152,271.59 373.485,270.924 375.5,269.5C 378.152,269.59 380.485,268.924 382.5,267.5C 398.015,261.66 413.681,255.993 429.5,250.5C 437.094,251.589 439.261,255.589 436,262.5C 398.939,289.423 357.772,307.256 312.5,316C 272.439,323.957 232.106,325.623 191.5,321C 178.515,319.436 165.848,316.936 153.5,313.5C 151.485,312.076 149.152,311.41 146.5,311.5C 111.663,302.901 79.3292,288.901 49.5,269.5C 49.0269,268.094 48.0269,267.427 46.5,267.5C 46.0269,266.094 45.0269,265.427 43.5,265.5C 34.267,259.933 25.6004,253.599 17.5,246.5C 17.0269,245.094 16.0269,244.427 14.5,244.5C 9.15404,240.482 4.15404,236.149 -0.5,231.5C -0.5,229.833 -0.5,228.167 -0.5,226.5C 1.49566,224.667 3.829,224.167 6.5,225C 13.7026,229.101 21.0359,232.934 28.5,236.5 Z"/></g>
<g><path style="opacity:0.918" fill="#72460d" d="M 28.5,236.5 C 29.7095,236.932 30.7095,237.599 31.5,238.5C 29.8212,238.715 28.8212,238.048 28.5,236.5 Z"/></g>
<g><path style="opacity:0.741" fill="#663e0f" d="M 14.5,244.5 C 16.0269,244.427 17.0269,245.094 17.5,246.5C 15.9731,246.573 14.9731,245.906 14.5,244.5 Z"/></g>
<g><path style="opacity:0.506" fill="#6e4208" d="M 43.5,265.5 C 45.0269,265.427 46.0269,266.094 46.5,267.5C 44.9731,267.573 43.9731,266.906 43.5,265.5 Z"/></g>
<g><path style="opacity:0.435" fill="#613a08" d="M 46.5,267.5 C 48.0269,267.427 49.0269,268.094 49.5,269.5C 47.9731,269.573 46.9731,268.906 46.5,267.5 Z"/></g>
<g><path style="opacity:0.925" fill="#945906" d="M 382.5,267.5 C 380.485,268.924 378.152,269.59 375.5,269.5C 377.515,268.076 379.848,267.41 382.5,267.5 Z"/></g>
<g><path style="opacity:0.925" fill="#935806" d="M 375.5,269.5 C 373.485,270.924 371.152,271.59 368.5,271.5C 370.515,270.076 372.848,269.41 375.5,269.5 Z"/></g>
<g><path style="opacity:0.925" fill="#935806" d="M 368.5,271.5 C 366.485,272.924 364.152,273.59 361.5,273.5C 363.515,272.076 365.848,271.41 368.5,271.5 Z"/></g>
<g><path style="opacity:0.737" fill="#8a5306" d="M 146.5,311.5 C 149.152,311.41 151.485,312.076 153.5,313.5C 150.848,313.59 148.515,312.924 146.5,311.5 Z"/></g>
</svg>
